<svg width="360" height="640" viewBox="0 0 360 640" fill="none" xmlns="http://www.w3.org/2000/svg">
<g clip-path="url(#clip0_108_164)">
<path d="M113.31 154.21C115.852 154.21 118.289 155.219 120.088 157.015C121.886 158.812 122.897 161.248 122.9 163.79C122.9 166.333 121.89 168.773 120.091 170.571C118.293 172.37 115.853 173.38 113.31 173.38C110.767 173.38 108.327 172.37 106.529 170.571C104.73 168.773 103.72 166.333 103.72 163.79C103.723 161.248 104.734 158.812 106.532 157.015C108.331 155.219 110.768 154.21 113.31 154.21Z" fill="#404791"/>
<path d="M347.21 261.57C348.735 261.57 350.198 262.176 351.276 263.254C352.354 264.332 352.96 265.795 352.96 267.32C352.961 268.076 352.814 268.825 352.525 269.523C352.237 270.222 351.813 270.857 351.279 271.392C350.745 271.927 350.111 272.352 349.413 272.641C348.714 272.931 347.966 273.08 347.21 273.08C345.684 273.077 344.222 272.469 343.143 271.389C342.065 270.309 341.46 268.846 341.46 267.32C341.463 265.796 342.069 264.335 343.147 263.257C344.225 262.179 345.686 261.573 347.21 261.57Z" fill="#404791"/>
<path d="M276.28 430.29C277.295 430.293 278.268 430.697 278.985 431.415C279.703 432.132 280.107 433.105 280.11 434.12C280.11 435.137 279.707 436.112 278.989 436.832C278.271 437.552 277.297 437.957 276.28 437.96C275.262 437.96 274.285 437.555 273.565 436.835C272.844 436.115 272.44 435.138 272.44 434.12C272.443 433.103 272.848 432.129 273.568 431.411C274.288 430.693 275.263 430.29 276.28 430.29Z" fill="#404791"/>
<path d="M26.9999 426.46C27.5037 426.459 28.0028 426.557 28.4687 426.749C28.9345 426.941 29.3579 427.222 29.7146 427.578C30.0713 427.934 30.3543 428.357 30.5474 428.822C30.7405 429.287 30.8399 429.786 30.8399 430.29C30.8399 430.794 30.7405 431.293 30.5474 431.758C30.3543 432.223 30.0713 432.646 29.7146 433.002C29.3579 433.358 28.9345 433.639 28.4687 433.831C28.0028 434.023 27.5037 434.121 26.9999 434.12C25.9841 434.12 25.01 433.717 24.2917 432.998C23.5734 432.28 23.1699 431.306 23.1699 430.29C23.1699 429.274 23.5734 428.3 24.2917 427.582C25.01 426.864 25.9841 426.46 26.9999 426.46Z" fill="#404791"/>
<path d="M23.2 315.26C24.2113 315.265 25.1794 315.671 25.8917 316.389C26.6041 317.107 27.0026 318.079 27 319.09C27.0013 319.593 26.9031 320.092 26.7111 320.557C26.5191 321.023 26.237 321.445 25.8811 321.801C25.5252 322.157 25.1025 322.439 24.6372 322.631C24.1719 322.823 23.6733 322.921 23.17 322.92C22.6662 322.921 22.167 322.823 21.7012 322.631C21.2354 322.439 20.812 322.158 20.4553 321.802C20.0986 321.446 19.8156 321.023 19.6225 320.558C19.4294 320.093 19.33 319.594 19.33 319.09C19.3299 318.584 19.4303 318.082 19.6253 317.615C19.8202 317.148 20.1059 316.724 20.4658 316.368C20.8257 316.011 21.2527 315.73 21.722 315.54C22.1913 315.35 22.6936 315.255 23.2 315.26Z" fill="#404791"/>
<path d="M13.6099 161.88C13.8616 161.879 14.111 161.927 14.3439 162.023C14.5768 162.118 14.7885 162.258 14.967 162.436C15.1454 162.613 15.287 162.824 15.3836 163.057C15.4802 163.289 15.5299 163.538 15.5299 163.79C15.5299 164.299 15.3276 164.788 14.9676 165.148C14.6075 165.508 14.1191 165.71 13.6099 165.71C13.3582 165.71 13.1091 165.66 12.8767 165.564C12.6443 165.467 12.4333 165.325 12.2558 165.147C12.0783 164.969 11.9378 164.757 11.8424 164.524C11.747 164.291 11.6986 164.042 11.6999 163.79C11.6986 163.539 11.7471 163.29 11.8426 163.058C11.9381 162.825 12.0788 162.614 12.2564 162.436C12.434 162.259 12.6451 162.118 12.8774 162.023C13.1098 161.927 13.3587 161.879 13.6099 161.88Z" fill="#404791"/>
<path d="M174.66 415C175.169 415 175.658 415.202 176.018 415.562C176.378 415.922 176.58 416.411 176.58 416.92C176.58 417.429 176.378 417.918 176.018 418.278C175.658 418.638 175.169 418.84 174.66 418.84C174.151 418.84 173.662 418.638 173.302 418.278C172.942 417.918 172.74 417.429 172.74 416.92C172.74 416.411 172.942 415.922 173.302 415.562C173.662 415.202 174.151 415 174.66 415Z" fill="#404791"/>
<path d="M339.54 388.11C340.049 388.11 340.537 388.312 340.898 388.672C341.258 389.032 341.46 389.521 341.46 390.03C341.46 390.282 341.41 390.531 341.314 390.763C341.217 390.996 341.075 391.207 340.897 391.384C340.718 391.562 340.507 391.702 340.274 391.797C340.041 391.893 339.792 391.941 339.54 391.94C339.289 391.94 339.041 391.891 338.809 391.795C338.577 391.699 338.367 391.558 338.189 391.381C338.012 391.203 337.871 390.993 337.775 390.761C337.679 390.529 337.63 390.281 337.63 390.03C337.63 389.523 337.831 389.036 338.189 388.676C338.547 388.316 339.032 388.113 339.54 388.11Z" fill="#404791"/>
<path d="M224.51 123.53C225.019 123.53 225.508 123.732 225.868 124.092C226.228 124.452 226.43 124.941 226.43 125.45C226.43 125.959 226.228 126.448 225.868 126.808C225.508 127.168 225.019 127.37 224.51 127.37C224.001 127.37 223.512 127.168 223.152 126.808C222.792 126.448 222.59 125.959 222.59 125.45C222.59 124.941 222.792 124.452 223.152 124.092C223.512 123.732 224.001 123.53 224.51 123.53Z" fill="#404791"/>
<path d="M274 553.09C274.477 554.255 274.72 555.502 274.715 556.761C274.71 558.02 274.457 559.265 273.97 560.426C273.484 561.587 272.773 562.64 271.879 563.526C270.985 564.413 269.925 565.114 268.76 565.59C267.595 566.067 266.346 566.311 265.087 566.306C263.827 566.301 262.581 566.048 261.42 565.561C260.258 565.075 259.204 564.364 258.317 563.47C257.429 562.576 256.727 561.516 256.25 560.35C255.289 557.996 255.303 555.357 256.287 553.013C257.272 550.669 259.147 548.812 261.5 547.85C262.665 547.373 263.912 547.13 265.171 547.135C266.43 547.14 267.675 547.393 268.836 547.88C269.997 548.366 271.05 549.077 271.936 549.971C272.823 550.865 273.524 551.925 274 553.09Z" fill="#404791"/>
<path d="M56.5799 616.84C56.2383 616.166 56.0328 615.432 55.9751 614.679C55.9173 613.926 56.0086 613.169 56.2435 612.451C56.4785 611.733 56.8525 611.068 57.3444 610.495C57.8362 609.922 58.4361 609.451 59.1099 609.11C59.7833 608.767 60.5178 608.56 61.2712 608.502C62.0246 608.444 62.7822 608.535 63.5004 608.77C64.2186 609.005 64.8833 609.379 65.4564 609.872C66.0295 610.364 66.4996 610.965 66.8399 611.64C67.5306 612.999 67.6531 614.577 67.1805 616.027C66.7079 617.476 65.679 618.679 64.3199 619.37C63.6458 619.713 62.9106 619.92 62.1564 619.978C61.4022 620.037 60.6439 619.946 59.9249 619.711C59.2059 619.476 58.5404 619.102 57.9664 618.609C57.3924 618.116 56.9212 617.515 56.5799 616.84Z" fill="#404791"/>
<path d="M239.14 603.71C238.911 603.262 238.772 602.773 238.733 602.271C238.693 601.769 238.753 601.264 238.909 600.786C239.065 600.307 239.314 599.864 239.642 599.482C239.97 599.1 240.37 598.787 240.82 598.56C241.268 598.331 241.757 598.192 242.259 598.153C242.761 598.113 243.266 598.173 243.744 598.329C244.223 598.485 244.666 598.735 245.048 599.062C245.43 599.39 245.743 599.791 245.97 600.24C246.199 600.688 246.338 601.177 246.377 601.679C246.417 602.181 246.357 602.686 246.201 603.164C246.045 603.643 245.795 604.086 245.467 604.468C245.14 604.85 244.739 605.163 244.29 605.39C243.842 605.619 243.353 605.758 242.851 605.797C242.349 605.837 241.844 605.777 241.366 605.621C240.887 605.465 240.444 605.215 240.062 604.888C239.68 604.56 239.367 604.159 239.14 603.71Z" fill="#404791"/>
<path d="M98.4999 70.73C98.883 71.6717 98.8771 72.7268 98.4834 73.6641C98.0898 74.6014 97.3405 75.3443 96.3999 75.73C95.4583 76.1131 94.4031 76.1072 93.4658 75.7135C92.5286 75.3199 91.7856 74.5706 91.3999 73.63C91.0168 72.6883 91.0227 71.6332 91.4164 70.6959C91.8101 69.7586 92.5593 69.0157 93.4999 68.63C94.4416 68.2469 95.4967 68.2528 96.434 68.6465C97.3713 69.0401 98.1142 69.7894 98.4999 70.73Z" fill="#404791"/>
<path d="M90.79 530.62C91.1731 531.562 91.1671 532.617 90.7735 533.554C90.3798 534.491 89.6306 535.234 88.69 535.62C87.7483 536.003 86.6932 535.997 85.7559 535.604C84.8186 535.21 84.0757 534.461 83.69 533.52C83.3069 532.578 83.3128 531.523 83.7064 530.586C84.1001 529.649 84.8494 528.906 85.79 528.52C86.7316 528.137 87.7868 528.143 88.724 528.537C89.6613 528.93 90.4043 529.679 90.79 530.62Z" fill="#404791"/>
<path d="M229.14 463.71C229.335 464.175 229.339 464.697 229.152 465.165C228.965 465.632 228.601 466.008 228.14 466.21C227.675 466.405 227.153 466.409 226.685 466.222C226.218 466.035 225.842 465.671 225.64 465.21C225.445 464.745 225.441 464.223 225.628 463.755C225.815 463.288 226.179 462.912 226.64 462.71C227.105 462.515 227.627 462.511 228.095 462.698C228.562 462.885 228.938 463.249 229.14 463.71Z" fill="#404791"/>
<path d="M165 203C165.194 203.465 165.199 203.987 165.012 204.455C164.825 204.922 164.461 205.298 164 205.5C163.529 205.692 163.002 205.689 162.533 205.492C162.064 205.295 161.693 204.92 161.5 204.45C161.305 203.985 161.301 203.463 161.488 202.995C161.675 202.528 162.039 202.152 162.5 201.95C162.971 201.758 163.498 201.761 163.967 201.958C164.436 202.155 164.807 202.53 165 203Z" fill="#404791"/>
<path d="M172.88 566.39C172.766 566.166 172.697 565.922 172.678 565.672C172.659 565.421 172.689 565.169 172.767 564.931C172.845 564.692 172.969 564.471 173.133 564.28C173.296 564.09 173.496 563.933 173.72 563.82C173.944 563.705 174.189 563.635 174.441 563.615C174.692 563.594 174.945 563.624 175.185 563.702C175.425 563.78 175.647 563.905 175.838 564.07C176.03 564.234 176.186 564.435 176.3 564.66C176.53 565.114 176.571 565.64 176.414 566.124C176.256 566.607 175.913 567.009 175.46 567.24C175.005 567.467 174.478 567.505 173.995 567.346C173.512 567.187 173.111 566.843 172.88 566.39Z" fill="#404791"/>
<path d="M336.49 32.12C336.681 32.5908 336.678 33.1184 336.482 33.5871C336.285 34.0557 335.91 34.4272 335.44 34.62C334.975 34.8146 334.453 34.8188 333.985 34.6317C333.518 34.4446 333.142 34.0813 332.94 33.62C332.748 33.1492 332.751 32.6216 332.948 32.153C333.145 31.6843 333.52 31.3129 333.99 31.12C334.454 30.9255 334.977 30.9213 335.445 31.1083C335.912 31.2954 336.288 31.6587 336.49 32.12Z" fill="#404791"/>
</g>
<defs>
<clipPath id="clip0_108_164">
<rect width="360" height="640" fill="white"/>
</clipPath>
</defs>
</svg>
