<svg width="140" height="138" viewBox="0 0 140 138" fill="none" xmlns="http://www.w3.org/2000/svg">
<g filter="url(#filter0_d_108_168)">
<mask id="mask0_108_168" style="mask-type:alpha" maskUnits="userSpaceOnUse" x="87" y="0" width="51" height="50">
<path d="M104.375 32.4997C112.948 40.99 122.953 46.9222 131.863 49.0417L133.764 44.7981C133.784 44.7556 133.79 44.7101 133.808 44.6676C136.01 40.4529 137.274 35.6752 137.274 30.6002C137.274 13.7897 123.596 0.113678 106.786 0.113678C101.231 0.113678 96.0347 1.63087 91.5438 4.23742L87.8616 5.93364C87.9481 6.25832 88.0057 6.56935 88.1013 6.90009C90.6153 15.5041 96.3943 24.5951 104.375 32.4997Z" fill="#BAE0CE"/>
</mask>
<g mask="url(#mask0_108_168)">
<path d="M104.375 32.4997C112.948 40.99 122.953 46.9222 131.863 49.0417L133.764 44.7981C133.784 44.7556 133.79 44.7101 133.808 44.6676C136.01 40.4529 137.274 35.6752 137.274 30.6002C137.274 13.7897 123.596 0.113678 106.786 0.113678C101.231 0.113678 96.0347 1.63087 91.5438 4.23742L87.8616 5.93364C87.9481 6.25832 88.0057 6.56935 88.1013 6.90009C90.6153 15.5041 96.3943 24.5951 104.375 32.4997Z" fill="#FFFCE0"/>
<path d="M104.375 32.4997C112.948 40.99 122.953 46.9222 131.863 49.0417L133.764 44.7981C133.784 44.7556 133.79 44.7101 133.808 44.6676C136.01 40.4529 137.274 35.6752 137.274 30.6002C137.274 13.7897 128.292 19.8372 111.482 19.8372C94.671 19.8372 96.0347 1.63088 91.5438 4.23742L87.8616 5.93365C87.9481 6.25833 88.0057 6.56935 88.1013 6.9001C90.6153 15.5041 96.3943 24.5952 104.375 32.4997Z" fill="#BAE0CE"/>
</g>
<mask id="mask1_108_168" style="mask-type:alpha" maskUnits="userSpaceOnUse" x="0" y="7" width="131" height="127">
<path d="M101.377 35.4674C92.8987 27.0712 86.7389 17.3399 84.0307 8.06528C83.9988 7.95453 83.9745 7.84832 83.9427 7.73757L2.49204 45.2487C0.97029 45.9497 0.304241 47.7521 1.00519 49.2738C1.51648 50.3844 2.61493 51.0398 3.76345 51.0398C4.18826 51.0398 4.61915 50.9503 5.03031 50.7607L79.8857 16.2885C77.8557 20.0875 76.6374 24.3691 76.3871 28.907L38.1856 53.9756C36.7837 54.895 36.3938 56.7764 37.3132 58.1767C37.8958 59.0643 38.8638 59.5468 39.853 59.5468C40.4234 59.5468 41.0015 59.3859 41.5143 59.0491L76.7906 35.8998C78.3078 44.5098 83.439 51.8713 90.5698 56.3743L31.0259 128.927C29.9624 130.222 30.1505 132.134 31.4462 133.198C32.0106 133.662 32.6918 133.886 33.37 133.886C34.2469 133.886 35.1163 133.507 35.7171 132.777L96.1531 59.1386C99.4697 60.3782 103.043 61.0898 106.786 61.0898C112.131 61.0898 117.153 59.697 121.525 57.271L91.3269 124.674C90.6411 126.203 91.3269 127.998 92.8547 128.684C93.2583 128.864 93.6785 128.949 94.0942 128.949C95.2534 128.949 96.3609 128.282 96.8646 127.155L130.123 52.9212C120.63 50.4542 110.227 44.2322 101.377 35.4674Z" fill="#BAE0CE"/>
</mask>
<g mask="url(#mask1_108_168)">
<path d="M101.377 35.4674C92.8987 27.0712 86.7389 17.3399 84.0307 8.06528C83.9988 7.95453 83.9745 7.84832 83.9427 7.73757L2.49204 45.2487C0.97029 45.9497 0.304241 47.7521 1.00519 49.2738C1.51648 50.3844 2.61493 51.0398 3.76345 51.0398C4.18826 51.0398 4.61915 50.9503 5.03031 50.7607L79.8857 16.2885C77.8557 20.0875 76.6374 24.3691 76.3871 28.907L38.1856 53.9756C36.7837 54.895 36.3938 56.7764 37.3132 58.1767C37.8958 59.0643 38.8638 59.5468 39.853 59.5468C40.4234 59.5468 41.0015 59.3859 41.5143 59.0491L76.7906 35.8998C78.3078 44.5098 83.11 51.7469 90.2409 56.2499L31.0259 128.927C29.9624 130.222 30.1505 132.134 31.4462 133.198C32.0106 133.662 32.6918 133.886 33.37 133.886C34.2469 133.886 35.1163 133.507 35.7171 132.777L96.1531 59.1386C99.4697 60.3782 103.043 61.0898 106.786 61.0898C112.131 61.0898 117.153 59.697 121.525 57.271L91.3269 124.674C90.6411 126.203 91.3269 127.998 92.8547 128.684C93.2583 128.864 93.6785 128.949 94.0942 128.949C95.2534 128.949 96.3609 128.282 96.8646 127.155L130.123 52.9212C120.63 50.4542 110.227 44.2322 101.377 35.4674Z" fill="#BAE0CE"/>
<path d="M83.4136 14.527L72.0346 19.8372L24.2429 53.2155L28.0359 75.9735L90.2409 56.2499C93.2753 52.4569 100.103 48.6639 90.9995 39.5608C81.8964 30.4576 82.1492 19.0786 83.4136 14.527Z" fill="#76AFA5"/>
<path d="M130.447 52.4569C126.805 51.8501 122.861 55.7442 121.343 57.7671L92.5167 92.6626L82.6549 130.592L104.654 135.903C114.769 108.34 134.088 53.0638 130.447 52.4569Z" fill="#76AFA5"/>
</g>
</g>
<defs>
<filter id="filter0_d_108_168" x="0.726318" y="0.113678" width="138.547" height="137.773" filterUnits="userSpaceOnUse" color-interpolation-filters="sRGB">
<feFlood flood-opacity="0" result="BackgroundImageFix"/>
<feColorMatrix in="SourceAlpha" type="matrix" values="0 0 0 0 0 0 0 0 0 0 0 0 0 0 0 0 0 0 127 0" result="hardAlpha"/>
<feOffset dx="2" dy="4"/>
<feComposite in2="hardAlpha" operator="out"/>
<feColorMatrix type="matrix" values="0 0 0 0 0.0901961 0 0 0 0 0.0941176 0 0 0 0 0.247059 0 0 0 1 0"/>
<feBlend mode="normal" in2="BackgroundImageFix" result="effect1_dropShadow_108_168"/>
<feBlend mode="normal" in="SourceGraphic" in2="effect1_dropShadow_108_168" result="shape"/>
</filter>
</defs>
</svg>
